<?xml version="1.0" encoding="UTF-8"?><svg id="_레이어_1" xmlns="http://www.w3.org/2000/svg" viewBox="0 0 120 79.27"><path d="m118.62,73.69c-6.71-3.78-12.37-9.17-16.48-15.68,0,0,0,0,0,0h0c-.41-.89-.99-2.39-1.18-4.33,2.84-2.16,5.32-4.74,7.23-7.88l1.59-5.08c.19-.99.19-1.66.02-2.14l-1.63-5.62c-1.88-2.97-4.27-5.58-7.05-7.7,0,0,0,0,0,0,.27-1.7.66-3.2,1.07-4.45,4.08-6.47,9.71-11.82,16.39-15.56,1.35-.76,1.82-2.48,1.06-3.83C119.13.53,118.18-.01,117.16,0h-17.18c-2.54,0-5.04.63-7.26,1.84l-15.28,8.36-4.43,3.3c-13.46-3.32-27.86-4.17-40.77-1.58h0c-3.29.61-7.05,1.61-11.04,3.25-1.43.59-2.78,1.21-4.03,1.84h0s0,0,0,0c-7.48,3.79-13.01,9-15.58,14.93h0s0,0,0,0c-.54,1.24-1.21,3.12-1.46,5.46-.16,1.35-.17,2.72-.02,4.07.02,0,.03.02.05.03.28,2.34.95,4.22,1.46,5.46-.02,0-.03-.01-.05-.02.13.27.26.54.39.81,0,0,0,.02.01.03,1.41,3.22,3.63,5.88,5.97,8,.05.05.1.09.15.13.05.04.1.09.15.13.96.87,1.98,1.68,3.06,2.41.99.7,1.95,1.31,2.81,1.82.89.53,1.8,1.03,2.72,1.5.1.05.19.1.28.15.01,0,.02.01.03.02h0s0,0,0,0h0c.08.1.25.14.34.19-.13-.06-.24-.13-.34-.19,1.26.64,2.55,1.22,3.86,1.75,0,0,0,0,0,0,2.41.97,4.88,1.78,7.39,2.44,0-.04.02-.07.03-.11,1.4.34,2.81.63,4.23.88-1.45,5.05,1.94,11.76,7.68,12.15,6.22.4,12.47.22,18.66-.54,4.14-.5,7.09-4.26,6.59-8.39,0-.07-.02-.15-.03-.22-.16-1.19-.56-2.19-1.14-3.02,2.03-.29,3.57-.56,4.48-.73h0s0,0,0,0c.77-.15,1.54-.32,2.32-.49h0s10.63,5.43,10.63,5.43l10.88,5.94c2.23,1.21,4.73,1.85,7.26,1.84h17.18c1.55,0,2.81-1.26,2.8-2.81,0-.98-.51-1.88-1.35-2.39Z"/></svg>