<?xml version="1.0" encoding="UTF-8"?><svg id="_레이어_1" xmlns="http://www.w3.org/2000/svg" viewBox="0 0 120 120"><path d="m118.32,92.64l-5.34-5.34h0s-2.65-2.65-2.65-2.65h0s-8.26-8.25-8.26-8.25h0s-2.65-2.65-2.65-2.65l-5.34-5.34c-1.12-1.12-2.6-1.68-4.07-1.68s-2.95.56-4.07,1.68l-5.11,5.11-3.89-3.89,16.44-16.44h0s1.6-1.6,1.6-1.6l-.03-.03,2.61-2.69c2.83-3.45,4.25-7.67,4.25-11.89,0-4.8-1.83-9.61-5.5-13.27l-.11-.11c-3.65-3.6-8.41-5.4-13.17-5.4-4.22,0-8.44,1.42-11.89,4.25l-2.71,2.59h-.01s-18.05,18.03-18.05,18.03l-3.89-3.89,5.11-5.11c1.12-1.12,1.68-2.6,1.68-4.07s-.56-2.95-1.68-4.07l-1.88-1.88-.03-.03-3.42-3.42h0s-2.65-2.65-2.65-2.65h0s-7.57-7.56-7.57-7.56l-3.34-3.34-5.34-5.34c-1.12-1.12-2.6-1.68-4.07-1.68s-2.95.56-4.07,1.68l-7.44,7.44-2.65,2.65-7.44,7.44c-1.12,1.13-1.68,2.6-1.68,4.07s.56,2.95,1.68,4.07l5.34,5.34,2.65,2.65h0s6.1,6.1,6.1,6.1l7.6,7.61,2.54,2.54c1.12,1.12,2.6,1.68,4.07,1.68s2.84-.52,3.94-1.56l.13-.12,5.11-5.11,3.89,3.89-19.37,19.37c-.73.73-.73,1.92,0,2.65l10.63,10.63-.76.77c-3.45-2.83-7.67-4.25-11.9-4.25-4.81,0-9.62,1.84-13.28,5.5-.73.73-.73,1.92,0,2.65l10.63,10.63-.75.75c-.53-.21-1.09-.31-1.66-.31-1.18,0-2.36.45-3.26,1.35-.9.9-1.34,2.08-1.35,3.26,0,1.12.41,2.24,1.22,3.12l.13.14c.9.9,2.08,1.34,3.26,1.35,1.12,0,2.24-.41,3.12-1.22l.14-.12c.9-.9,1.35-2.08,1.35-3.27,0-.56-.1-1.12-.31-1.66l.75-.75,10.63,10.63c.73.73,1.92.73,2.65,0,3.67-3.67,5.5-8.48,5.5-13.28,0-4.22-1.42-8.45-4.25-11.9l.76-.77,10.64,10.63c.73.73,1.92.73,2.65,0l19.37-19.37,3.89,3.89-5.11,5.11c-1.12,1.13-1.68,2.6-1.68,4.07s.56,2.95,1.68,4.07l5.34,5.34,10.91,10.91,2.65,2.65,5.34,5.34c1.12,1.12,2.6,1.68,4.07,1.68s2.84-.52,3.94-1.56l.13-.12,7.44-7.44,2.65-2.65,7.44-7.44c1.12-1.13,1.69-2.6,1.69-4.07s-.56-2.95-1.68-4.07Z"/></svg>