<?xml version="1.0" encoding="UTF-8"?><svg id="_레이어_1" xmlns="http://www.w3.org/2000/svg" viewBox="0 0 68.84 120"><path d="m68.84,34.42C68.84,15.41,53.43,0,34.42,0S0,15.41,0,34.42c0,6.69,1.91,12.92,5.21,18.2l21.37,42.01c-11.88,1.55-20.57,6.53-20.57,12.43,0,7.14,12.72,12.94,28.41,12.94s28.41-5.79,28.41-12.94c0-5.91-8.71-10.89-20.6-12.44l21.39-42c3.3-5.28,5.22-11.52,5.22-18.21Zm-34.42,18.85c-10.41,0-18.85-8.44-18.85-18.85s8.44-18.85,18.85-18.85,18.85,8.44,18.85,18.85-8.44,18.85-18.85,18.85Z"/></svg>